<?xml version="1.0" encoding="ISO-8859-1" standalone="no"?>
<!DOCTYPE svg PUBLIC "-//W3C//DTD SVG 1.1//EN"
    "http://www.w3.org/Graphics/SVG/1.1/DTD/svg11.dtd">
<svg xmlns="http://www.w3.org/2000/svg"
     xmlns:xlink="http://www.w3.org/1999/xlink" xml:space="preserve" zoomAndPan="disable"
         width="400" height="400"
         viewBox="0 0 400 400" >
	
	<!-- Matthew Bystedt http://apike.ca 2012 -->


<script type="text/ecmascript" xlink:href="unseth/unseth.js" />
	
	<!-- Pattern Definition -->
	<defs>
		<pattern id="checkerPattern" patternUnits="userSpaceOnUse"
				x="0" y="0" width="20" height="20"
				viewBox="0 0 10 10" >
				
			<rect x="0" y="0" width="5" height="5" fill="lightblue" />
			<rect x="5" y="5" width="5" height="5" fill="lightblue" />
		</pattern>
        
	</defs>

	<!-- Background -->
	<rect x="0" y="0" width="100%" height="100%" fill="url(#checkerPattern)" />
    <image x="0" y="0" width="100%" height="100%" xlink:href="ground.jpg" image-rendering="optimizeSpeed" />
	
	<!-- Example -->

    <image id="unSeth" x="0" y="0" width="128" height="128" xlink:href="unseth/stopd.png" image-rendering="optimizeSpeed" />

    <circle cx="25" cy="25" opacity="0.7" r="22" fill="grey" stroke="white" stroke-width="3" />
        
    <rect x="10" y="20" width="10" height="10" onclick="unSeth.startAnimate('walk', 6)" />
    <rect x="30" y="20" width="10" height="10" onclick="unSeth.startAnimate('walk', 2)" />
    <rect x="20" y="10" width="10" height="10" onclick="unSeth.startAnimate('walk', 0)" />
    <rect x="20" y="30" width="10" height="10" onclick="unSeth.startAnimate('walk', 4)" />
    <rect x="20" y="20" width="10" height="10" fill="red" onclick="unSeth.stop()" />
    

    <image x="-64" y="0" width="64" height="64" xlink:href="unseth/stepr1.png" image-rendering="optimizeSpeed" />
    <image x="-64" y="0" width="64" height="64" xlink:href="unseth/stepr2.png" image-rendering="optimizeSpeed" />
    <image x="-64" y="0" width="64" height="64" xlink:href="unseth/stepr3.png" image-rendering="optimizeSpeed" />
    <image x="-64" y="0" width="64" height="64" xlink:href="unseth/stepr4.png" image-rendering="optimizeSpeed" />


    <image x="-64" y="0" width="64" height="64" xlink:href="unseth/stepu1.png" image-rendering="optimizeSpeed" />
    <image x="-64" y="0" width="64" height="64" xlink:href="unseth/stepu2.png" image-rendering="optimizeSpeed" />
    <image x="-64" y="0" width="64" height="64" xlink:href="unseth/stepu3.png" image-rendering="optimizeSpeed" />
    <image x="-64" y="0" width="64" height="64" xlink:href="unseth/stepu4.png" image-rendering="optimizeSpeed" />


    <image x="-64" y="0" width="64" height="64" xlink:href="unseth/stepd1.png" image-rendering="optimizeSpeed" />
    <image x="-64" y="0" width="64" height="64" xlink:href="unseth/stepd2.png" image-rendering="optimizeSpeed" />
    <image x="-64" y="0" width="64" height="64" xlink:href="unseth/stepd3.png" image-rendering="optimizeSpeed" />
    <image x="-64" y="0" width="64" height="64" xlink:href="unseth/stepd4.png" image-rendering="optimizeSpeed" />


    <image x="-64" y="0" width="64" height="64" xlink:href="unseth/stepl1.png" image-rendering="optimizeSpeed" />
    <image x="-64" y="0" width="64" height="64" xlink:href="unseth/stepl2.png" image-rendering="optimizeSpeed" />
    <image x="-64" y="0" width="64" height="64" xlink:href="unseth/stepl3.png" image-rendering="optimizeSpeed" />
    <image x="-64" y="0" width="64" height="64" xlink:href="unseth/stepl4.png" image-rendering="optimizeSpeed" />

    <image x="-64" y="0" width="64" height="64" xlink:href="unseth/stopu.png" image-rendering="optimizeSpeed" />
    <image x="-64" y="0" width="64" height="64" xlink:href="unseth/stopl.png" image-rendering="optimizeSpeed" />
    <image x="-64" y="0" width="64" height="64" xlink:href="unseth/stopr.png" image-rendering="optimizeSpeed" />
 
<script type="text/ecmascript"><![CDATA[
	var doc = window.document;
    var unSeth = new aniBody(doc.getElementById("unSeth"), 220, 190, 1);

    UpdateTimer();
    
	function UpdateTimer() {
		var document = window.document;
        if ((document.getElementById("unSeth").getAttribute("x") < -32 && unSeth.direction == 6)
            ||(document.getElementById("unSeth").getAttribute("x") > 336 && unSeth.direction == 2)
            ||(document.getElementById("unSeth").getAttribute("y") < -32 && unSeth.direction == 0)
            ||(document.getElementById("unSeth").getAttribute("y") > 336 && unSeth.direction == 4)){
            unSeth.stop();
        }
    
        unSeth.animate(100);
		setTimeout("UpdateTimer()", 100);
    }

]]> </script>
   
</svg>