<?xml version="1.0" encoding="ISO-8859-1" standalone="no"?>
<!DOCTYPE svg PUBLIC "-//W3C//DTD SVG 1.1//EN"
    "http://www.w3.org/Graphics/SVG/1.1/DTD/svg11.dtd">
<svg xmlns="http://www.w3.org/2000/svg"
     xmlns:xlink="http://www.w3.org/1999/xlink" xml:space="preserve"
         width="640" height="250"
         viewBox="0 0 640 250"  >
	
	<!-- Matthew Bystedt http://apike.ca 2012 -->
	
	<!-- Pattern Definition -->
	<defs>
		<pattern id="rulerPattern" patternUnits="userSpaceOnUse"
				x="0" y="0" width="10" height="10"
				viewBox="0 0 10 10" >
				
			<line x1="0" y1="0" x2="10" y2="0" stroke="lightblue" fill="none" stroke-dasharray="2,2" />
			<line x1="0" y1="0" x2="0" y2="10" stroke="lightblue" fill="none" stroke-dasharray="2,2" />
		</pattern>
	</defs>

	<!-- Background -->
	<rect x="0" y="0" width="100%" height="100%" fill="url(#rulerPattern)" />

	<!-- Lines and dots -->
	<circle cx="80" cy="120" r="4" fill="orange"  />
	<line x1="0" y1="120" x2="100%" y2="120" stroke="black" opacity=".6" />
	
	<circle cx="80" cy="170" r="4" fill="orange"  />
	<line x1="0" y1="170" x2="100%" y2="170" stroke="black" opacity=".6" />
	
	<line x1="0" y1="70" x2="100%" y2="70" stroke="black" opacity=".6" />
	<circle cx="80" cy="70" r="4" fill="orange"  />
	
	<line x1="0" y1="220" x2="100%" y2="220" stroke="black" opacity=".6" />
	
	<!-- text-anchor samples -->
	<text x="80" y="30" font-size="20" text-anchor="middle">text-anchor</text>
		<text x="80" y="70" fill="blue" font-size="20" text-anchor="start" >start</text>
		<text x="80" y="120" fill="blue" font-size="20" text-anchor="middle" >middle</text>
		<text x="80" y="170" fill="blue" font-size="20" text-anchor="end" >end</text>
	
	<!-- alignment-baseline samples -->
	<text x="400" y="30" font-size="20" text-anchor="middle">alignment-baseline</text>
	
		<text x="160" y="70" fill="blue" font-size="20" alignment-baseline="auto" >auto</text>
		<text x="280" y="70" fill="blue" font-size="20" alignment-baseline="baseline" >baseline</text>
		<text x="400" y="70" fill="blue" font-size="20" alignment-baseline="middle" >middle</text>
		<text x="520" y="70" fill="blue" font-size="20" alignment-baseline="central" >central</text>
		
		<text x="160" y="120" fill="blue" font-size="20" alignment-baseline="before-edge" >before-edge</text>
		<text x="400" y="120" fill="blue" font-size="20" alignment-baseline="text-before-edge" >text-before-edge</text>
		
		<text x="160" y="170" fill="blue" font-size="20" alignment-baseline="after-edge" >after-edge</text>
		<text x="400" y="170" fill="blue" font-size="20" alignment-baseline="text-after-edge" >text-after-edge</text>
		
		<text x="160" y="220" fill="blue" font-size="20" alignment-baseline="ideographic" >ideographic</text>
		<text x="280" y="220" fill="blue" font-size="20" alignment-baseline="alphabetic" >alphabetic</text>
		<text x="400" y="220" fill="blue" font-size="20" alignment-baseline="hanging" >hanging</text>
		<text x="520" y="220" fill="blue" font-size="20" alignment-baseline="mathematical" >mathematical</text>
</svg>