<?xml version="1.0" encoding="ISO-8859-1" standalone="no"?>
<!DOCTYPE svg PUBLIC "-//W3C//DTD SVG 1.1//EN"
    "http://www.w3.org/Graphics/SVG/1.1/DTD/svg11.dtd">
<svg xmlns="http://www.w3.org/2000/svg"
     xmlns:xlink="http://www.w3.org/1999/xlink" xml:space="preserve"
         width="640" height="450"
         viewBox="0 0 1280 900"  >
	
	<!-- Matthew Bystedt http://apike.ca 2012 -->
	
	<!-- Definitions -->
	<defs>
		<pattern id="checkerPattern" patternUnits="userSpaceOnUse"
				x="0" y="0" width="20" height="20"
				viewBox="0 0 10 10" >
			<g id="checkerPatternInner">
			<rect x="0" y="0" width="5" height="5" fill="lightblue" />
			<rect x="5" y="5" width="5" height="5" fill="lightblue" />
			</g>
		</pattern>
		
		<radialGradient id="myRadGrad" r="90%" spreadMethod="reflect">
			<stop offset="0" stop-color="#eee" />
			<stop offset="10%" stop-color="#ccc" />
			<stop offset="60%" stop-color="#555" />
			<stop offset="80%" stop-color="#000" />
		</radialGradient>
		
		<mask id="circleMask" maskUnits="objectBoundingBox" x="0" y="0" width="1280" height="600">
			<rect x="0" y ="0" width="1280" height="600" fill="url(#myRadGrad)"/>
			<text x="640" y="210" font-size="300" fill="white" text-anchor="middle">Delicious</text>
			<text x="640" y="590" font-size="300" fill="white" text-anchor="middle">FOOD</text>
		</mask>
	</defs>
	
	<!-- Background -->
	<rect x="0" y="0" width="100%" height="100%" fill="url(#checkerPattern)" opacity=".5"/>
	
	<!-- Mask Sample -->
	<g transform="translate(0,300)">
		<image x="0" y="0" width="1280" height="600" xlink:href="maskFood.jpg" mask="url(#circleMask)" />
		<text x="640" y="210" font-size="300" fill="none" stroke="black" stroke-width="4" text-anchor="middle">Delicious</text>
		<text x="640" y="590" font-size="300" fill="none" stroke="black" stroke-width="4" text-anchor="middle">FOOD</text>
	</g>
	
	<!-- Show image and mask -->
	<image x="0" y="0" width="640" height="300" xlink:href="maskFood.jpg" />
	<text x="320" y="105" font-size="150" fill="none" stroke="black" stroke-width="2" text-anchor="middle">Delicious</text>
	<text x="320" y="295" font-size="150" fill="none" stroke="black" stroke-width="2" text-anchor="middle">FOOD</text>
	<rect x="0" y ="0" width="1280" height="600" fill="black" transform="scale(.5) translate(1280,0)" />
	<rect x="0" y ="0" width="1280" height="600" mask="url(#circleMask)" fill="white" transform="scale(.5) translate(1280,0)" />
		
</svg>